0
SECTION
2
HEADER
9
$ACADVER
1
AC1015
9
$INSBASE
10
0.0
20
0.0
30
0.0
9
$EXTMIN
10
-50.0
20
-25.0
30
0.0
9
$EXTMAX
10
50.0
20
25.0
30
15.0
0
ENDSEC
0
SECTION
2
ENTITIES
0
TEXT
8
TITLE
10
0.0
20
22.0
30
0.0
40
2.0
1
AMPEL360 BWB JACKING AND SHORING POINTS - STORAGE
0
TEXT
8
INFO
10
-40.0
20
-22.0
30
0.0
40
0.8
1
Document: DIAG_Jacking-and-Shoring-Storage.dxf
0
TEXT
8
INFO
10
-40.0
20
-23.0
30
0.0
40
0.8
1
ATA Chapter: 10 / 07 (Lifting and Shoring)
0
TEXT
8
INFO
10
-40.0
20
-24.0
30
0.0
40
0.8
1
Purpose: Long-term storage tire relief
0
CIRCLE
8
JACK1
10
-15.0
20
-8.0
30
0.0
40
0.6
0
TEXT
8
JACK1
10
-14.0
20
-8.0
30
0.0
40
0.7
1
JP1: MLG Left
0
TEXT
8
JACK1
10
-14.0
20
-9.0
30
0.0
40
0.5
1
Capacity: 180,000 lbs
0
CIRCLE
8
JACK2
10
15.0
20
-8.0
30
0.0
40
0.6
0
TEXT
8
JACK2
10
16.0
20
-8.0
30
0.0
40
0.7
1
JP2: MLG Right
0
TEXT
8
JACK2
10
16.0
20
-9.0
30
0.0
40
0.5
1
Capacity: 180,000 lbs
0
CIRCLE
8
JACK3
10
0.0
20
12.0
30
0.0
40
0.6
0
TEXT
8
JACK3
10
1.0
20
12.0
30
0.0
40
0.7
1
JP3: Nose Gear
0
TEXT
8
JACK3
10
1.0
20
11.0
30
0.0
40
0.5
1
Capacity: 40,000 lbs
0
POLYLINE
8
OUTLINE
66
1
10
0.0
20
0.0
30
0.0
70
1
0
VERTEX
8
OUTLINE
10
-20.0
20
10.0
30
0.0
0
VERTEX
8
OUTLINE
10
-20.0
20
-12.0
30
0.0
0
VERTEX
8
OUTLINE
10
-10.0
20
-18.0
30
0.0
0
VERTEX
8
OUTLINE
10
0.0
20
-18.0
30
0.0
0
VERTEX
8
OUTLINE
10
10.0
20
-18.0
30
0.0
0
VERTEX
8
OUTLINE
10
20.0
20
-12.0
30
0.0
0
VERTEX
8
OUTLINE
10
20.0
20
10.0
30
0.0
0
VERTEX
8
OUTLINE
10
10.0
20
18.0
30
0.0
0
VERTEX
8
OUTLINE
10
0.0
20
18.0
30
0.0
0
VERTEX
8
OUTLINE
10
-10.0
20
18.0
30
0.0
0
SEQEND
8
OUTLINE
0
CIRCLE
8
SUPPORT
10
-8.0
20
-8.0
30
0.0
40
0.4
0
TEXT
8
SUPPORT
10
-7.5
20
-8.0
30
0.0
40
0.5
1
S1
0
CIRCLE
8
SUPPORT
10
8.0
20
-8.0
30
0.0
40
0.4
0
TEXT
8
SUPPORT
10
8.5
20
-8.0
30
0.0
40
0.5
1
S2
0
TEXT
8
NOTES
10
-40.0
20
-16.0
30
0.0
40
0.7
1
JACKING PROCEDURE FOR STORAGE > 365 DAYS:
0
TEXT
8
NOTES
10
-40.0
20
-17.0
30
0.0
40
0.6
1
1. Use certified jacks rated for aircraft weight
0
TEXT
8
NOTES
10
-40.0
20
-18.0
30
0.0
40
0.6
1
2. Jack sequence: MLG Left, MLG Right, then Nose
0
TEXT
8
NOTES
10
-40.0
20
-19.0
30
0.0
40
0.6
1
3. Place support stands at S1 and S2 before lowering jacks
0
TEXT
8
NOTES
10
-40.0
20
-20.0
30
0.0
40
0.6
1
4. Ensure aircraft level and stable
0
TEXT
8
NOTES
10
-40.0
20
-21.0
30
0.0
40
0.6
1
5. Refer to AMM 07-11-00 for detailed procedures
0
TEXT
8
DIMENSIONS
10
25.0
20
15.0
30
0.0
40
0.7
1
DIMENSIONS (meters):
0
TEXT
8
DIMENSIONS
10
25.0
20
14.0
30
0.0
40
0.6
1
Wingspan: 40.0 m
0
TEXT
8
DIMENSIONS
10
25.0
20
13.0
30
0.0
40
0.6
1
Body length: 36.0 m
0
TEXT
8
DIMENSIONS
10
25.0
20
12.0
30
0.0
40
0.6
1
MLG spacing: 30.0 m
0
ENDSEC
0
EOF
