0
SECTION
2
HEADER
9
$ACADVER
1
AC1015
9
$INSBASE
10
0.0
20
0.0
30
0.0
9
$EXTMIN
10
-50.0
20
-25.0
30
0.0
9
$EXTMAX
10
50.0
20
25.0
30
10.0
0
ENDSEC
0
SECTION
2
ENTITIES
0
TEXT
8
TITLE
10
0.0
20
22.0
30
0.0
40
2.0
1
AMPEL360 BWB MOORING TIE-DOWN POINTS
0
TEXT
8
INFO
10
-40.0
20
-22.0
30
0.0
40
0.8
1
Document: DIAG_Mooring-Tie-Down-Points-BWB.dxf
0
TEXT
8
INFO
10
-40.0
20
-23.0
30
0.0
40
0.8
1
ATA Chapter: 10-02 MOORING
0
TEXT
8
INFO
10
-40.0
20
-24.0
30
0.0
40
0.8
1
Aircraft: AMPEL360 Blended Wing Body Configuration
0
CIRCLE
8
TD1
10
0.0
20
15.0
30
0.0
40
0.5
0
TEXT
8
TD1
10
1.0
20
15.0
30
0.0
40
0.6
1
TD1: NOSE GEAR
0
TEXT
8
TD1
10
1.0
20
14.0
30
0.0
40
0.5
1
Max Load: 12,000 lbs
0
CIRCLE
8
TD2
10
-18.0
20
8.0
30
0.0
40
0.5
0
TEXT
8
TD2
10
-17.0
20
8.0
30
0.0
40
0.6
1
TD2: LH FWD WING
0
TEXT
8
TD2
10
-17.0
20
7.0
30
0.0
40
0.5
1
Max: 18,000 lbs
0
CIRCLE
8
TD3
10
18.0
20
8.0
30
0.0
40
0.5
0
TEXT
8
TD3
10
19.0
20
8.0
30
0.0
40
0.6
1
TD3: RH FWD WING
0
TEXT
8
TD3
10
19.0
20
7.0
30
0.0
40
0.5
1
Max: 18,000 lbs
0
CIRCLE
8
TD4
10
-15.0
20
0.0
30
0.0
40
0.5
0
TEXT
8
TD4
10
-14.0
20
0.0
30
0.0
40
0.6
1
TD4: LH MID-BODY
0
TEXT
8
TD4
10
-14.0
20
-0.8
30
0.0
40
0.5
1
Max: 18,000 lbs
0
CIRCLE
8
TD5
10
15.0
20
0.0
30
0.0
40
0.5
0
TEXT
8
TD5
10
16.0
20
0.0
30
0.0
40
0.6
1
TD5: RH MID-BODY
0
TEXT
8
TD5
10
16.0
20
-0.8
30
0.0
40
0.5
1
Max: 18,000 lbs
0
CIRCLE
8
TD6
10
-12.0
20
-10.0
30
0.0
40
0.5
0
TEXT
8
TD6
10
-11.0
20
-10.0
30
0.0
40
0.6
1
TD6: LH AFT BODY
0
TEXT
8
TD6
10
-11.0
20
-11.0
30
0.0
40
0.5
1
Max: 18,000 lbs
0
CIRCLE
8
TD7
10
12.0
20
-10.0
30
0.0
40
0.5
0
TEXT
8
TD7
10
13.0
20
-10.0
30
0.0
40
0.6
1
TD7: RH AFT BODY
0
TEXT
8
TD7
10
13.0
20
-11.0
30
0.0
40
0.5
1
Max: 18,000 lbs
0
CIRCLE
8
TD8
10
0.0
20
-15.0
30
0.0
40
0.5
0
TEXT
8
TD8
10
1.0
20
-15.0
30
0.0
40
0.6
1
TD8: TAIL/AFT
0
TEXT
8
TD8
10
1.0
20
-16.0
30
0.0
40
0.5
1
Max: 15,000 lbs
0
POLYLINE
8
OUTLINE
66
1
10
0.0
20
0.0
30
0.0
70
1
0
VERTEX
8
OUTLINE
10
-20.0
20
10.0
30
0.0
0
VERTEX
8
OUTLINE
10
-20.0
20
-12.0
30
0.0
0
VERTEX
8
OUTLINE
10
-10.0
20
-18.0
30
0.0
0
VERTEX
8
OUTLINE
10
0.0
20
-18.0
30
0.0
0
VERTEX
8
OUTLINE
10
10.0
20
-18.0
30
0.0
0
VERTEX
8
OUTLINE
10
20.0
20
-12.0
30
0.0
0
VERTEX
8
OUTLINE
10
20.0
20
10.0
30
0.0
0
VERTEX
8
OUTLINE
10
10.0
20
18.0
30
0.0
0
VERTEX
8
OUTLINE
10
0.0
20
18.0
30
0.0
0
VERTEX
8
OUTLINE
10
-10.0
20
18.0
30
0.0
0
SEQEND
8
OUTLINE
0
TEXT
8
NOTES
10
-40.0
20
-18.0
30
0.0
40
0.7
1
MOORING NOTES:
0
TEXT
8
NOTES
10
-40.0
20
-19.0
30
0.0
40
0.6
1
1. All tie-downs must be rated for specified loads
0
TEXT
8
NOTES
10
-40.0
20
-20.0
30
0.0
40
0.6
1
2. Install tie-downs at 45-degree angle to ground
0
TEXT
8
NOTES
10
-40.0
20
-21.0
30
0.0
40
0.6
1
3. See PROC_Mooring procedures for installation
0
ENDSEC
0
EOF
